<svg xmlns="http://www.w3.org/2000/svg" width="498" height="89">
  <g fill="#1A1918" fill-rule="nonzero">
    <path d="M148.275 65.627c0 9.34-2.135 16.321-10.58 22.937l-9.162-7.754c4.809-4.508 6.337-7.997 6.458-13.518l-7.33.005V46.474h20.614v19.153zM127.791 32.616h20.463V11.793h-20.463zM.31 67.3V1.446h49.53v15.669H20.177v11.561h27.425v15.673H20.177V67.3zM96.002 67.297V41.553H76.787v25.744H56.452V1.445h20.335v23.132h19.215V1.445h20.426v65.852zM187.772 31.293c3.918 0 6.808-.561 8.394-1.865 1.49-1.214 2.052-3.078 2.052-5.225 0-2.052-.561-3.917-2.052-5.223-1.492-1.4-3.918-1.864-8.116-1.864h-8.114v14.177h7.836zm-27.89 36.004V1.445h28.168c12.967 0 18.561 1.397 22.479 4.01 5.784 3.824 8.583 10.073 8.583 18.281 0 7.557-2.985 14.18-8.302 18.097-4.57 3.264-10.54 4.852-20.8 4.852h-9.983v20.612h-20.145zM254.423 3.794v4.258h4.327v2.311h-4.327v6.527h-3.093V1.436h7.901v2.358zM267.16 11.715h-.87c-2.222 0-2.863.733-2.863 1.81 0 .937.53 1.51 1.535 1.51.71 0 1.487-.365 2.199-.983v-2.337zm.64 5.175l-.206-1.168c-.983.847-2.037 1.42-3.503 1.42-2.313 0-3.548-1.146-3.548-3.276 0-2.38 1.899-3.958 5.906-3.958h.712v-.87c0-1.17-.664-1.742-2.13-1.742-1.19 0-2.45.32-3.48.687l-.39-1.784c1.352-.596 2.887-1.031 4.603-1.031 2.93 0 4.302 1.397 4.302 3.571v8.15H267.8zM277.33 17.12c-3.021 0-4.579-1.925-4.579-5.817 0-3.617 1.856-6.137 4.786-6.137 1.466 0 2.632.53 3.434 1.444l-1.031 1.51a2.803 2.803 0 0 0-1.947-.754c-1.327 0-2.174 1.234-2.174 3.64 0 2.794.756 3.892 2.082 3.892.916 0 1.674-.298 2.428-.963l.891 1.512c-.89.917-2.15 1.673-3.89 1.673M292.697 16.89h-2.93c0-2.337.066-4.717.066-5.998 0-2.746-.547-3.367-1.6-3.367-.573 0-1.33.343-2.108.939v8.425h-2.953V.657h2.953v5.748c.804-.688 1.878-1.237 3.138-1.237 2.289 0 3.526 1.42 3.526 5.195 0 1.377-.092 3.986-.092 6.526M305.547 16.89h-2.93c0-2.337.066-4.717.066-5.998 0-2.746-.547-3.367-1.601-3.367-.573 0-1.329.343-2.108.939v8.425h-2.952V.657h2.952v5.748c.802-.688 1.879-1.237 3.139-1.237 2.288 0 3.525 1.42 3.525 5.195 0 1.377-.091 3.986-.091 6.526M313.544 7.344c-1.351 0-2.288.937-2.288 3.548 0 3.228.845 4.075 2.311 4.075 1.329 0 2.266-.939 2.266-3.55 0-3.228-.846-4.073-2.289-4.073m-.229 9.797c-3.253 0-5.08-1.647-5.08-5.768 0-4.238 2.125-6.205 5.538-6.205 3.253 0 5.081 1.649 5.081 5.768 0 4.212-2.126 6.205-5.539 6.205M325.481 17.12c-3.022 0-4.58-1.925-4.58-5.817 0-3.617 1.856-6.137 4.786-6.137 1.466 0 2.632.53 3.434 1.444l-1.03 1.51a2.803 2.803 0 0 0-1.948-.754c-1.326 0-2.174 1.234-2.174 3.64 0 2.794.756 3.892 2.082 3.892.919 0 1.675-.298 2.429-.963l.89 1.512c-.89.917-2.15 1.673-3.889 1.673M340.848 16.89h-2.93c0-2.337.066-4.717.066-5.998 0-2.746-.547-3.367-1.601-3.367-.573 0-1.329.343-2.108.939v8.425h-2.952V.657h2.952v5.748c.802-.688 1.879-1.237 3.139-1.237 2.288 0 3.525 1.42 3.525 5.195 0 1.377-.091 3.986-.091 6.526M346.899 17.12c-1.283 0-2.449-.323-3.571-.94l.252-1.534c1.305.297 2.082.389 2.792.389 1.512 0 2.085-.573 2.085-1.26 0-.754-.37-1.143-2.04-1.739-2.196-.778-3.044-1.718-3.044-3.388 0-2.082 1.67-3.482 4.19-3.482 1.029 0 2.016.232 3.205.848l-.32 1.512c-.96-.23-1.625-.344-2.269-.344-1.189 0-1.715.548-1.715 1.191 0 .685.39 1.031 2.013 1.627 2.245.754 3.093 1.83 3.093 3.477 0 2.085-1.718 3.643-4.671 3.643M357.986 17.12c-3.022 0-4.58-1.925-4.58-5.817 0-3.617 1.856-6.137 4.786-6.137 1.466 0 2.632.53 3.434 1.444l-1.031 1.51a2.803 2.803 0 0 0-1.947-.754c-1.327 0-2.174 1.234-2.174 3.64 0 2.794.756 3.892 2.082 3.892.916 0 1.675-.298 2.428-.963l.891 1.512c-.89.917-2.15 1.673-3.89 1.673M373.352 16.89h-2.93c0-2.337.067-4.717.067-5.998 0-2.746-.548-3.367-1.602-3.367-.572 0-1.328.343-2.107.939v8.425h-2.953V.657h2.953v5.748c.802-.688 1.878-1.237 3.138-1.237 2.289 0 3.526 1.42 3.526 5.195 0 1.377-.092 3.986-.092 6.526M383.8 16.89l-.23-1.212c-.983.89-2.15 1.463-3.457 1.463-2.336 0-3.525-1.463-3.525-5.195 0-1.42.092-4.007.092-6.526h2.952c0 2.31-.089 4.645-.089 6.02 0 2.703.548 3.344 1.578 3.344.64 0 1.395-.39 2.13-.94V5.42h2.954v11.47h-2.406zM391.794 17.073c-1.486 0-2.265-.459-2.265-2.314V.657h2.953v12.934c0 1.285.16 1.466.756 1.466.183 0 .412-.023.572-.023l.115 1.74c-.55.184-1.235.299-2.13.299M402.241 9.86c0-1.83-.62-2.723-1.855-2.723-1.28 0-1.968 1.122-2.06 2.77h3.915V9.86zm-3.914 1.879v.16c0 2.108.914 2.999 2.563 2.999 1.028 0 2.38-.227 3.709-.665l.435 1.693c-1.398.736-3.045 1.217-4.74 1.217-2.998 0-4.989-1.49-4.989-5.68 0-4.097 1.99-6.296 5.195-6.296 2.953 0 4.9 1.649 4.58 6.572h-6.753zM418.024 3.657h-.94v5.748h.94c2.037 0 2.953-1.054 2.953-2.887 0-1.855-.802-2.861-2.953-2.861m-.298 8.036h-.641v5.195h-3.093V1.435c1.443 0 2.91-.044 4.488-.044 4.19 0 5.724 1.9 5.724 4.852 0 3.162-1.692 5.45-6.478 5.45M431.035 7.344c-1.352 0-2.289.937-2.289 3.548 0 3.228.846 4.075 2.312 4.075 1.328 0 2.265-.939 2.265-3.55 0-3.228-.845-4.073-2.288-4.073m-.23 9.797c-3.252 0-5.08-1.647-5.08-5.768 0-4.238 2.126-6.205 5.539-6.205 3.253 0 5.08 1.649 5.08 5.768 0 4.212-2.125 6.205-5.538 6.205M442.03 17.12c-2.105 0-2.907-.802-2.907-2.999v-6.64h-1.44V5.42h1.555c.274-1.033.48-2.062.687-3.343h2.15v3.343h2.544v2.06h-2.543v5.905c0 1.168.277 1.534 1.03 1.534.367 0 .848-.043 1.581-.25l.23 1.694c-1.077.547-2.017.756-2.887.756M449.934 17.12c-1.283 0-2.45-.323-3.572-.94l.252-1.534c1.306.297 2.083.389 2.795.389 1.51 0 2.082-.573 2.082-1.26 0-.754-.366-1.143-2.039-1.739-2.196-.778-3.044-1.718-3.044-3.388 0-2.082 1.67-3.482 4.19-3.482 1.028 0 2.016.232 3.205.848l-.321 1.512c-.96-.23-1.624-.344-2.266-.344-1.19 0-1.715.548-1.715 1.191 0 .685.387 1.031 2.01 1.627 2.246.754 3.093 1.83 3.093 3.477 0 2.085-1.718 3.643-4.67 3.643M463.378 7.503a4.476 4.476 0 0 0-1.397-.23c-1.49 0-2.518 1.215-2.518 3.938 0 2.428.71 3.665 1.876 3.665.55 0 1.283-.323 2.04-.962V7.503zm.548 9.387l-.227-1.168c-.962.824-2.016 1.42-3.23 1.42-2.678 0-4.027-2.449-4.027-5.518 0-4.625 2.494-6.458 5.653-6.458.459 0 .985.048 1.283.071V.657h2.953V16.89h-2.405zM475.543 11.715h-.87c-2.222 0-2.863.733-2.863 1.81 0 .937.526 1.51 1.534 1.51.71 0 1.487-.365 2.2-.983v-2.337zm.64 5.175l-.207-1.168c-.982.847-2.036 1.42-3.502 1.42-2.314 0-3.549-1.146-3.549-3.276 0-2.38 1.9-3.958 5.906-3.958h.712v-.87c0-1.17-.664-1.742-2.13-1.742-1.189 0-2.449.32-3.48.687l-.389-1.784c1.352-.596 2.886-1.031 4.602-1.031 2.93 0 4.302 1.397 4.302 3.571v8.15h-2.265zM497.596 16.89h-2.93c0-2.312.07-4.671.07-5.998 0-2.746-.505-3.367-1.488-3.367-.595 0-1.42.435-2.178 1.03.071.367.117.894.117 1.719v6.615h-2.93v-5.997c0-2.703-.506-3.367-1.466-3.367-.55 0-1.306.366-2.062.939v8.425h-2.953V5.42h2.426l.206 1.212c.92-.845 2.085-1.463 3.39-1.463 1.419 0 2.358.71 2.79 1.647 1.103-.983 2.292-1.647 3.666-1.647 2.245 0 3.434 1.463 3.434 5.174 0 1.42-.092 4.028-.092 6.547M256.85 42.34c-3.665 0-5.541-1.534-5.541-5.493V26.635h3.092v9.89c0 2.631.823 3.55 2.724 3.55 1.716 0 2.747-.804 2.747-3.368V26.635h3.024V36.5c0 4.236-2.497 5.84-6.046 5.84M275.93 42.088H273c0-2.312.067-4.671.067-6.02 0-2.724-.525-3.345-1.579-3.345-.618 0-1.374.367-2.13.94v8.425h-2.953v-11.47h2.426l.206 1.212c.985-.891 2.154-1.464 3.482-1.464 2.312 0 3.503 1.464 3.503 5.195 0 1.42-.092 4.007-.092 6.527M279.255 42.088h2.953v-11.47h-2.953v11.47zm1.487-12.957c-1.418 0-1.764-.368-1.764-1.534 0-1.146.37-1.535 1.764-1.535 1.42 0 1.741.343 1.741 1.535 0 1.145-.344 1.534-1.74 1.534zM291.415 42.088h-3.846l-3.273-11.47h3.181l1.856 6.478.458 2.29c.962-3.112 1.624-5.95 1.9-8.768h3.044c-.596 3.938-1.716 7.875-3.32 11.47M303.144 35.059c0-1.83-.618-2.724-1.855-2.724-1.281 0-1.968 1.122-2.06 2.77h3.915v-.046zm-3.915 1.878v.16c0 2.108.914 3 2.564 3 1.028 0 2.38-.228 3.708-.665l.436 1.693c-1.398.735-3.045 1.216-4.74 1.216-2.999 0-4.99-1.489-4.99-5.679 0-4.098 1.991-6.297 5.196-6.297 2.953 0 4.9 1.65 4.58 6.572h-6.754zM315.034 33.229c-.481-.14-.779-.16-1.008-.16-.641 0-1.191.432-2.222 1.738v7.28h-2.953v-11.47h2.426l.23 1.787c1.168-1.535 1.946-2.016 2.771-2.016.341 0 .73.069 1.097.252l-.341 2.589zM320.146 42.318c-1.28 0-2.45-.323-3.572-.94l.252-1.534c1.304.298 2.083.39 2.795.39 1.51 0 2.082-.573 2.082-1.26 0-.754-.366-1.144-2.038-1.74-2.197-.778-3.045-1.717-3.045-3.387 0-2.083 1.672-3.482 4.19-3.482 1.028 0 2.016.231 3.205.847l-.321 1.512c-.96-.229-1.624-.343-2.266-.343-1.19 0-1.715.547-1.715 1.19 0 .686.387 1.032 2.01 1.627 2.246.754 3.093 1.83 3.093 3.478 0 2.084-1.718 3.642-4.67 3.642M327.293 42.088h2.952v-11.47h-2.952v11.47zm1.489-12.957c-1.42 0-1.764-.368-1.764-1.534 0-1.146.366-1.535 1.764-1.535 1.42 0 1.738.343 1.738 1.535 0 1.145-.341 1.534-1.738 1.534zM336.707 42.318c-2.106 0-2.907-.802-2.907-2.999v-6.64h-1.441v-2.06h1.555c.275-1.033.481-2.062.687-3.342h2.151v3.342h2.543v2.06h-2.543v5.905c0 1.168.278 1.535 1.031 1.535.367 0 .848-.044 1.58-.25l.23 1.693c-1.077.547-2.016.756-2.886.756M342.248 46.186c-.504 0-1.143-.158-1.739-.481v-1.693c.344.043.87.069 1.143.069.736 0 1.237-.16 1.65-.507.48-.41.664-.8.664-1.349 0-.458-.137-1.145-.525-2.268l-2.84-9.34h3.159l1.784 6.436c.346 1.097.552 2.15.504 2.838.87-2.68 1.673-6.206 1.902-9.273h3.044c-1.83 11.974-5.585 15.568-8.746 15.568M362.795 32.542c-1.351 0-2.288.937-2.288 3.548 0 3.228.845 4.076 2.311 4.076 1.329 0 2.266-.94 2.266-3.551 0-3.228-.846-4.073-2.289-4.073m-.229 9.798c-3.253 0-5.08-1.647-5.08-5.768 0-4.238 2.125-6.206 5.538-6.206 3.253 0 5.081 1.65 5.081 5.768 0 4.213-2.126 6.206-5.539 6.206M376.562 28.008a3.832 3.832 0 0 0-1.351-.275c-.894 0-1.235.458-1.235 1.42v1.466h2.06v2.06h-2.06v9.408h-2.93v-9.409h-1.466V30.62h1.466v-1.374c0-2.266.891-3.643 3.205-3.643 1.143 0 2.062.346 2.747.713l-.436 1.693zM255.933 54.557a193.247 193.247 0 0 0-1.99 7.372h4.12c-.641-2.38-1.374-4.992-2.13-7.372zm3.296 12.73c-.183-.87-.433-2.154-.664-3.045h-5.104c-.206.868-.458 1.99-.639 3.045h-2.955c1.145-5.15 2.657-10.487 4.282-15.454h4.052c1.784 5.287 3.136 10.256 4.37 15.454h-3.342zM269.61 57.83c-.547 0-1.303.323-2.038.962v6.412c.39.16.87.226 1.376.226 1.487 0 2.54-1.211 2.54-3.935 0-2.36-.71-3.665-1.878-3.665m-.822 9.708c-.346 0-.85-.02-1.216-.069v3.778h-2.953v-15.43h2.405l.23 1.167c.938-.847 2.036-1.42 3.181-1.42 2.749 0 4.075 2.474 4.075 5.519 0 4.53-2.426 6.455-5.722 6.455M282.185 57.83c-.547 0-1.303.323-2.039.962v6.412c.39.16.87.226 1.377.226 1.487 0 2.54-1.211 2.54-3.935 0-2.36-.71-3.665-1.878-3.665m-.822 9.708c-.346 0-.85-.02-1.217-.069v3.778h-2.952v-15.43h2.405l.229 1.167c.94-.847 2.036-1.42 3.182-1.42 2.746 0 4.075 2.474 4.075 5.519 0 4.53-2.426 6.455-5.722 6.455M292.037 67.47c-1.487 0-2.266-.459-2.266-2.314V51.054h2.953v12.933c0 1.285.16 1.466.756 1.466.183 0 .412-.023.573-.023l.114 1.741c-.55.184-1.234.298-2.13.298M296.413 67.286h2.953v-11.47h-2.953v11.47zM297.9 54.33c-1.418 0-1.762-.37-1.762-1.535 0-1.146.367-1.535 1.762-1.535 1.42 0 1.74.344 1.74 1.535 0 1.145-.34 1.535-1.74 1.535zM308.987 60.257c0-1.83-.62-2.724-1.855-2.724-1.28 0-1.968 1.123-2.06 2.77h3.915v-.046zm-3.915 1.878v.16c0 2.108.914 3 2.564 3 1.028 0 2.38-.227 3.709-.665l.435 1.693c-1.398.735-3.045 1.216-4.74 1.216-2.998 0-4.99-1.489-4.99-5.678 0-4.099 1.992-6.298 5.196-6.298 2.953 0 4.9 1.65 4.58 6.572h-6.754zM320.991 57.9a4.476 4.476 0 0 0-1.397-.23c-1.489 0-2.518 1.214-2.518 3.938 0 2.428.71 3.665 1.877 3.665.55 0 1.282-.323 2.038-.962v-6.412zm.548 9.387l-.227-1.169c-.962.825-2.016 1.42-3.23 1.42-2.676 0-4.027-2.448-4.027-5.518 0-4.625 2.495-6.457 5.654-6.457.458 0 .985.048 1.282.07v-4.579h2.953v16.233h-2.405zM337.074 67.516c-1.81 0-3.343-.598-4.648-1.466l.733-1.626c1.234.504 2.471.824 3.342.824 1.578 0 2.563-.687 2.563-1.99 0-3.024-6.455-2.429-6.455-7.283 0-2.655 2.06-4.37 4.946-4.37 1.443 0 2.838.389 4.144 1.26l-.733 1.6c-.983-.389-1.993-.618-2.839-.618-1.534 0-2.245.733-2.245 1.764 0 3.022 6.616 2.515 6.616 7.278 0 2.611-1.922 4.627-5.424 4.627M348.984 67.516c-3.022 0-4.58-1.924-4.58-5.816 0-3.617 1.856-6.137 4.786-6.137 1.466 0 2.632.53 3.434 1.443l-1.031 1.51a2.803 2.803 0 0 0-1.947-.754c-1.327 0-2.174 1.235-2.174 3.64 0 2.795.756 3.892 2.082 3.892.916 0 1.675-.298 2.428-.962l.891 1.512c-.89.916-2.15 1.672-3.89 1.672M355.077 67.286h2.953v-11.47h-2.953v11.47zm1.49-12.956c-1.421 0-1.765-.37-1.765-1.535 0-1.146.367-1.535 1.764-1.535 1.42 0 1.739.344 1.739 1.535 0 1.145-.342 1.535-1.739 1.535zM367.652 60.257c0-1.83-.619-2.724-1.853-2.724-1.283 0-1.97 1.123-2.062 2.77h3.915v-.046zm-3.915 1.878v.16c0 2.108.916 3 2.563 3 1.029 0 2.38-.227 3.71-.665l.434 1.693c-1.397.735-3.044 1.216-4.74 1.216-2.998 0-4.988-1.489-4.988-5.678 0-4.099 1.99-6.298 5.195-6.298 2.953 0 4.9 1.65 4.58 6.572h-6.754zM382.882 67.286h-2.93c0-2.311.067-4.67.067-6.02 0-2.724-.527-3.345-1.581-3.345-.616 0-1.372.367-2.128.94v8.425h-2.953v-11.47h2.426l.206 1.212c.985-.891 2.153-1.464 3.482-1.464 2.31 0 3.503 1.464 3.503 5.196 0 1.42-.092 4.006-.092 6.526M390.148 67.516c-3.022 0-4.58-1.924-4.58-5.816 0-3.617 1.856-6.137 4.786-6.137 1.464 0 2.632.53 3.434 1.443l-1.031 1.51a2.803 2.803 0 0 0-1.947-.754c-1.326 0-2.174 1.235-2.174 3.64 0 2.795.756 3.892 2.082 3.892.917 0 1.672-.298 2.428-.962l.892 1.512c-.892.916-2.151 1.672-3.89 1.672M402.172 60.257c0-1.83-.62-2.724-1.855-2.724-1.28 0-1.968 1.123-2.06 2.77h3.915v-.046zm-3.915 1.878v.16c0 2.108.914 3 2.564 3 1.028 0 2.38-.227 3.708-.665l.436 1.693c-1.398.735-3.045 1.216-4.74 1.216-2.998 0-4.99-1.489-4.99-5.678 0-4.099 1.992-6.298 5.196-6.298 2.953 0 4.9 1.65 4.58 6.572h-6.754zM410.604 67.516c-1.28 0-2.45-.323-3.572-.939l.252-1.535c1.304.298 2.083.39 2.795.39 1.51 0 2.082-.573 2.082-1.26 0-.754-.366-1.143-2.038-1.739-2.197-.779-3.045-1.718-3.045-3.388 0-2.082 1.672-3.482 4.19-3.482 1.028 0 2.016.231 3.207.848l-.323 1.511c-.96-.229-1.624-.343-2.266-.343-1.19 0-1.715.547-1.715 1.191 0 .687.39 1.03 2.013 1.627 2.243.753 3.09 1.83 3.09 3.477 0 2.084-1.718 3.642-4.67 3.642"/>
  </g>
</svg>