<?xml version="1.0" standalone="no"?>
<!DOCTYPE svg PUBLIC "-//W3C//DTD SVG 20010904//EN"
 "http://www.w3.org/TR/2001/REC-SVG-20010904/DTD/svg10.dtd">
<svg version="1.0" xmlns="http://www.w3.org/2000/svg"
 width="5692.000000pt" height="5692.000000pt" viewBox="0 0 5692.000000 5692.000000"
 preserveAspectRatio="xMidYMid meet">
<metadata>
Created by potrace 1.11, written by Peter Selinger 2001-2013
</metadata>
<g transform="translate(0.000000,5692.000000) scale(0.100000,-0.100000)"
fill="#000000" stroke="none">
<path d="M12820 44079 c-74 -21 -146 -40 -160 -43 -14 -2 -25 -5 -25 -6 0 -2
-12 -5 -50 -13 -11 -3 -45 -12 -75 -21 -30 -8 -91 -25 -135 -36 -44 -12 -96
-26 -115 -31 -19 -5 -44 -12 -55 -14 -11 -3 -69 -19 -130 -35 -60 -17 -117
-33 -125 -35 -8 -2 -51 -13 -95 -25 -44 -12 -84 -23 -90 -24 -5 -1 -30 -8 -55
-15 -25 -7 -52 -14 -60 -16 -8 -2 -42 -10 -75 -19 -33 -9 -69 -19 -80 -21 -11
-3 -67 -18 -125 -34 -105 -28 -160 -43 -170 -45 -3 -1 -11 -5 -17 -9 -7 -5
-13 -6 -13 -3 0 2 -15 0 -32 -5 -18 -6 -40 -12 -48 -14 -8 -1 -42 -10 -75 -19
-33 -9 -71 -19 -84 -22 -14 -3 -28 -7 -33 -10 -4 -3 -17 -7 -28 -10 -11 -2
-29 -6 -40 -9 -11 -3 -28 -7 -38 -9 -9 -2 -37 -10 -62 -17 -56 -16 -60 -17
-85 -23 -11 -3 -63 -16 -115 -31 -122 -33 -126 -34 -151 -40 -12 -2 -47 -12
-78 -21 -31 -9 -65 -18 -76 -20 -11 -2 -42 -10 -70 -18 -27 -8 -61 -17 -75
-20 -14 -3 -52 -22 -85 -42 -33 -20 -82 -49 -110 -64 -27 -15 -113 -64 -189
-109 -76 -44 -140 -81 -142 -81 -1 0 -60 -34 -129 -75 -70 -41 -128 -75 -130
-75 -2 0 -39 -21 -82 -46 -43 -26 -91 -55 -108 -64 -216 -123 -523 -301 -572
-331 -34 -22 -65 -39 -67 -39 -2 0 -44 -23 -93 -51 -94 -55 -189 -111 -238
-139 -16 -9 -277 -160 -580 -335 -302 -175 -584 -337 -625 -360 -160 -90 -546
-315 -557 -325 -7 -5 -15 -10 -18 -10 -4 0 -39 -19 -78 -42 -40 -23 -88 -52
-107 -63 -127 -72 -187 -107 -200 -115 -59 -36 -220 -128 -245 -140 -16 -8
-32 -17 -35 -20 -3 -3 -43 -28 -90 -54 -125 -71 -140 -79 -320 -184 -91 -53
-208 -120 -260 -150 -52 -30 -122 -70 -155 -90 -72 -42 -114 -66 -157 -91 -18
-10 -77 -44 -130 -75 -54 -31 -102 -56 -107 -56 -5 0 -11 -4 -13 -8 -1 -5 -41
-30 -88 -56 -47 -27 -107 -61 -135 -77 -27 -16 -81 -48 -120 -70 -38 -22 -77
-44 -85 -49 -22 -13 -249 -145 -290 -167 -184 -104 -396 -229 -398 -235 -2 -4
-9 -8 -16 -8 -7 0 -40 -17 -72 -37 -33 -21 -85 -51 -117 -68 -31 -16 -57 -33
-57 -37 0 -5 -9 -8 -19 -8 -11 0 -22 -4 -25 -8 -3 -5 -81 -53 -174 -106 l-170
-97 -1064 -1064 -1065 -1065 1070 -1070 c588 -588 1079 -1073 1091 -1076 12
-4 23 -10 26 -14 3 -3 30 -20 60 -37 109 -62 127 -72 285 -163 88 -51 174
-101 190 -110 17 -10 118 -68 225 -130 107 -63 212 -123 232 -134 20 -12 94
-54 165 -95 413 -239 547 -316 623 -359 25 -13 50 -28 55 -32 6 -4 27 -17 48
-29 60 -34 99 -56 155 -90 29 -17 55 -31 58 -31 3 0 18 -8 32 -19 15 -10 47
-29 72 -43 62 -35 297 -170 400 -231 47 -27 99 -57 115 -67 32 -18 136 -75
170 -94 11 -6 22 -13 25 -16 6 -7 232 -137 285 -164 22 -12 42 -24 45 -27 3
-3 30 -19 60 -35 30 -16 57 -31 60 -34 3 -3 68 -42 145 -85 77 -44 149 -85
160 -92 11 -7 26 -15 34 -19 8 -4 54 -31 103 -61 49 -29 91 -53 94 -53 2 0 21
-11 42 -24 31 -20 309 -181 407 -236 17 -9 75 -43 130 -75 176 -103 217 -125
225 -125 5 0 10 -3 12 -8 2 -4 44 -30 93 -59 132 -75 478 -272 495 -283 18
-10 160 -93 280 -162 47 -27 92 -53 100 -58 151 -88 191 -110 200 -110 5 0 10
-4 10 -9 0 -5 10 -13 23 -17 12 -3 29 -12 37 -19 8 -7 40 -25 70 -41 30 -16
57 -32 60 -35 3 -3 50 -31 105 -63 55 -31 107 -61 115 -66 16 -9 180 -103 243
-139 41 -23 48 -27 224 -129 194 -113 454 -263 501 -289 24 -13 53 -27 65 -29
25 -6 26 -6 87 -23 25 -7 52 -14 60 -16 8 -2 41 -10 72 -20 31 -9 69 -18 84
-21 15 -3 35 -9 46 -15 10 -5 18 -7 18 -5 0 3 11 1 26 -4 14 -6 38 -12 55 -15
16 -3 48 -12 72 -19 40 -14 191 -53 231 -62 10 -2 33 -8 50 -13 29 -10 132
-38 241 -66 28 -7 86 -23 130 -35 44 -11 88 -23 99 -25 10 -2 44 -12 75 -21
31 -9 63 -18 71 -19 8 -2 30 -8 48 -14 17 -5 32 -8 32 -5 0 3 8 0 18 -5 11 -6
31 -13 45 -16 15 -3 39 -7 54 -11 15 -3 30 -7 35 -10 4 -3 17 -7 28 -10 24 -5
26 -5 170 -44 63 -17 135 -37 160 -44 25 -7 48 -14 53 -15 4 0 8 -1 10 -2 1 0
9 -2 17 -4 8 -2 25 -6 38 -9 12 -3 31 -8 42 -10 11 -3 24 -7 28 -10 5 -3 19
-7 33 -10 13 -2 51 -12 84 -21 33 -9 107 -29 165 -44 58 -16 150 -41 205 -56
139 -37 136 -37 171 -42 21 -3 31 -1 32 9 1 15 3 24 21 88 7 25 15 53 17 64 2
10 14 58 28 105 13 47 27 100 32 116 4 17 8 32 9 35 1 3 5 19 9 35 4 17 19 69
32 116 14 47 27 95 29 107 3 12 7 30 9 40 2 9 20 76 40 148 20 71 38 139 40
149 5 21 86 325 110 410 8 28 18 64 22 80 4 17 8 35 10 40 1 6 19 69 39 142
20 72 38 140 40 150 2 10 8 33 14 51 5 18 10 34 11 37 0 3 2 10 4 17 3 12 42
160 51 198 2 8 18 67 35 130 37 135 36 133 50 185 6 22 13 48 15 58 3 9 7 25
10 35 2 9 14 53 26 97 11 44 22 87 24 95 2 8 8 29 15 45 6 17 11 31 11 32 -2
10 13 63 16 59 5 -4 50 -171 59 -216 2 -14 9 -36 13 -50 8 -22 20 -64 27 -96
1 -6 10 -38 19 -70 9 -33 19 -67 21 -78 2 -10 11 -44 20 -75 9 -31 17 -63 19
-71 2 -8 10 -42 19 -75 9 -33 18 -67 21 -75 2 -8 8 -27 14 -42 6 -16 9 -28 6
-28 -2 0 2 -18 10 -40 8 -22 15 -44 15 -48 2 -15 13 -60 37 -147 14 -49 27
-99 29 -109 2 -10 8 -33 13 -50 6 -17 23 -83 40 -146 16 -63 44 -167 61 -230
17 -63 33 -122 35 -130 2 -8 9 -35 16 -60 15 -56 17 -60 23 -85 3 -11 12 -47
21 -80 9 -33 18 -67 20 -75 2 -8 25 -91 50 -185 25 -93 48 -178 50 -189 2 -10
12 -44 21 -75 9 -31 17 -63 19 -71 2 -8 9 -35 16 -60 17 -61 17 -62 23 -87 2
-12 12 -49 21 -82 16 -57 18 -59 42 -50 13 5 36 11 51 14 15 3 61 14 102 25
41 12 80 22 85 23 6 2 16 6 23 10 6 5 12 6 12 3 0 -2 15 0 33 5 17 6 39 12 47
14 8 2 51 13 95 25 44 12 130 35 190 51 61 16 118 31 128 34 9 3 25 7 35 9 9
2 29 9 45 15 15 6 27 9 27 7 0 -2 27 4 60 14 33 10 60 16 60 14 0 -3 8 0 18 5
11 6 30 12 43 15 13 3 60 14 104 26 44 12 88 23 98 25 9 2 21 6 25 9 5 3 19 7
33 10 25 4 110 27 444 117 61 16 117 31 125 34 8 2 65 17 125 33 61 16 124 33
140 37 17 5 32 9 35 10 29 9 99 28 112 31 10 2 27 6 37 8 10 3 70 19 132 36
63 18 121 33 129 35 42 9 244 67 253 72 44 27 -128 -148 -1048 -1068 l-1049
-1049 1055 -1055 c580 -580 1055 -1057 1057 -1059 2 -2 -30 5 -70 16 -115 31
-222 60 -238 63 -8 2 -58 15 -110 30 -52 14 -102 28 -111 30 -8 2 -40 10 -70
19 -30 9 -55 16 -56 16 -2 0 -4 0 -5 1 -2 0 -12 3 -23 5 -11 3 -24 6 -30 8
-35 10 -102 29 -115 31 -8 2 -30 8 -47 14 -18 5 -33 8 -33 6 0 -3 -12 0 -27 6
-26 10 -157 47 -193 54 -8 2 -35 9 -60 16 -52 14 -58 16 -85 23 -11 3 -47 13
-80 22 -33 9 -67 18 -75 20 -24 6 -94 24 -110 29 -22 6 -92 25 -114 30 -45 10
-253 67 -276 76 -14 4 -36 11 -50 13 -14 3 -77 19 -140 36 -63 18 -125 33
-137 36 -12 2 -34 9 -48 14 -14 5 -53 16 -88 25 -34 8 -96 24 -137 36 -41 11
-82 22 -90 24 -20 5 -170 45 -195 52 -34 10 -80 8 -81 -2 0 -5 -6 -30 -13 -55
-7 -25 -15 -52 -16 -60 -2 -8 -11 -41 -19 -72 -9 -32 -23 -84 -32 -115 -8 -32
-17 -65 -19 -73 -2 -8 -13 -50 -25 -92 -11 -43 -23 -88 -26 -100 -7 -33 -8
-37 -26 -98 -9 -30 -28 -100 -43 -155 -14 -55 -37 -143 -51 -195 -14 -52 -28
-106 -30 -119 -3 -14 -7 -28 -10 -32 -2 -4 -13 -43 -25 -86 -11 -43 -22 -86
-24 -95 -3 -10 -7 -28 -10 -39 -2 -12 -9 -36 -14 -53 -12 -36 -51 -182 -56
-209 -2 -10 -7 -27 -10 -37 -3 -10 -8 -27 -10 -37 -2 -10 -16 -58 -30 -108
-14 -49 -27 -99 -29 -110 -3 -17 -20 -81 -32 -120 -2 -5 -10 -37 -19 -70 -18
-69 -18 -69 -40 -150 -9 -33 -18 -67 -20 -75 -3 -8 -12 -42 -21 -75 -9 -33
-18 -67 -20 -75 -5 -20 -23 -91 -29 -110 -2 -8 -18 -67 -36 -130 l-32 -115 -1
-4265 c-1 -2346 2 -4278 7 -4295 4 -16 10 -37 12 -45 3 -14 42 -162 49 -185
18 -62 29 -103 32 -117 2 -10 6 -26 9 -36 2 -9 11 -42 19 -72 7 -30 24 -91 36
-135 12 -44 28 -105 36 -135 8 -30 17 -62 19 -70 7 -23 25 -93 29 -110 16 -64
58 -215 61 -220 2 -3 6 -17 8 -31 3 -13 17 -69 32 -124 15 -55 29 -107 30
-115 2 -8 4 -15 5 -15 2 0 5 -12 13 -50 3 -11 11 -40 18 -65 17 -61 17 -62 23
-89 3 -13 13 -49 22 -80 9 -31 17 -63 19 -71 2 -8 9 -35 16 -60 14 -50 16 -56
23 -85 14 -52 27 -101 30 -115 3 -8 12 -42 21 -75 9 -33 18 -69 20 -79 3 -10
9 -33 15 -51 6 -18 13 -42 15 -54 12 -51 35 -138 59 -222 9 -31 18 -65 21 -75
2 -11 15 -62 29 -114 15 -52 31 -113 37 -136 l11 -41 101 29 c56 15 111 30
122 32 11 2 40 10 65 17 25 7 50 13 55 15 6 1 46 12 90 23 94 26 183 50 206
55 8 2 39 11 67 20 29 8 52 12 52 9 0 -3 7 0 15 7 8 7 15 10 15 7 0 -3 21 2
48 10 26 8 55 16 66 18 10 3 44 12 75 21 50 14 69 19 106 27 6 2 16 6 23 10 6
5 12 6 12 3 0 -3 11 -1 25 4 14 5 36 12 48 14 12 2 82 20 156 41 74 20 142 38
150 40 9 2 59 15 111 30 52 14 102 28 110 30 8 2 76 20 150 40 148 40 162 43
188 49 23 5 126 34 187 52 28 8 61 16 74 19 14 2 99 25 190 50 91 24 218 59
281 75 96 26 137 44 249 108 73 42 162 93 197 112 35 19 69 41 76 48 6 6 15
12 19 12 3 0 58 30 120 66 63 36 139 80 169 97 30 16 161 92 290 167 129 75
253 147 275 159 22 12 47 26 55 31 13 8 134 79 278 161 44 26 85 50 162 94 36
21 75 43 87 49 13 6 23 14 23 19 0 4 5 7 11 7 5 0 54 25 107 56 53 31 111 64
127 74 17 9 134 77 260 150 127 73 246 142 265 153 19 11 136 78 260 150 124
72 261 151 305 176 44 24 82 48 83 53 2 4 12 8 22 8 10 0 20 3 22 8 2 6 308
184 478 280 25 13 52 31 61 38 8 8 19 14 22 14 4 0 94 50 200 112 105 61 207
119 225 130 68 38 99 56 148 85 27 17 70 41 95 55 121 68 214 124 217 130 2 5
8 8 13 8 6 0 53 25 105 55 53 30 99 55 104 55 5 0 10 4 12 8 3 8 32 25 158 95
30 17 57 34 58 39 2 4 8 8 13 8 6 0 54 25 107 56 53 31 117 68 142 82 25 14
57 33 72 43 14 11 28 19 31 19 3 0 88 48 189 107 101 58 201 116 223 129 22
12 123 70 225 129 102 59 201 116 220 127 19 11 76 44 125 73 50 29 110 64
135 78 25 13 140 80 255 147 116 67 226 131 245 141 19 11 57 33 85 48 33 20
396 375 1113 1092 584 585 1061 1067 1059 1072 -1 5 -475 482 -1052 1059 -848
848 -1044 1049 -1020 1045 17 -2 66 -15 110 -27 44 -12 91 -24 104 -26 14 -3
28 -7 32 -10 4 -2 43 -13 86 -25 187 -49 370 -98 428 -115 28 -8 51 -14 53
-14 1 1 26 -5 55 -14 48 -14 94 -26 342 -91 50 -13 124 -33 165 -45 41 -11 82
-22 90 -24 8 -2 69 -18 135 -36 66 -17 125 -33 130 -34 6 -2 30 -8 55 -15 25
-7 52 -15 60 -16 8 -2 74 -20 147 -40 72 -20 140 -38 151 -40 10 -2 50 -12 88
-23 38 -11 83 -23 99 -28 17 -4 35 -8 40 -10 6 -1 37 -10 70 -19 33 -9 67 -18
75 -20 8 -2 42 -11 75 -20 168 -45 211 -57 225 -60 8 -2 21 -5 29 -7 12 -3 38
67 55 147 3 11 14 56 26 100 12 44 24 89 26 99 2 10 8 33 14 51 6 18 12 41 15
51 2 10 20 80 40 154 21 74 38 140 39 145 2 6 8 30 15 55 7 25 15 52 16 60 2
8 15 58 30 110 14 52 28 105 31 117 2 12 9 34 14 48 5 14 8 25 5 25 -2 0 2 18
10 40 8 22 14 42 15 45 0 3 0 6 1 8 1 4 8 32 13 55 3 12 7 26 10 30 3 5 7 19
10 33 3 13 7 34 10 47 4 12 8 32 11 44 3 12 13 52 24 88 18 59 30 106 37 136
1 6 10 38 19 70 9 33 19 66 21 74 2 8 11 42 20 75 9 33 17 65 18 70 1 6 5 19
9 30 3 11 8 31 11 45 3 14 17 68 31 120 15 52 28 102 30 110 2 8 20 76 40 150
21 74 38 140 39 145 2 6 8 30 15 55 8 25 14 50 15 55 2 6 8 30 15 55 13 45 18
63 27 110 8 38 11 36 27 -22 28 -95 68 -242 73 -268 3 -14 8 -34 11 -45 4 -11
8 -24 9 -30 2 -5 10 -37 19 -70 21 -80 17 -68 68 -255 49 -182 59 -220 63
-236 1 -6 10 -38 19 -70 9 -33 19 -66 21 -74 2 -8 11 -42 19 -75 9 -33 18 -68
20 -78 2 -9 6 -21 9 -25 3 -5 7 -19 10 -33 2 -13 14 -60 26 -104 12 -44 23
-88 25 -98 2 -9 6 -21 10 -26 3 -5 7 -22 9 -38 4 -26 34 -137 72 -273 9 -30
17 -62 19 -70 2 -8 10 -42 20 -75 17 -63 35 -130 40 -155 2 -8 4 -15 5 -15 2
0 5 -12 13 -50 3 -11 12 -45 21 -75 19 -66 110 -405 120 -450 17 -70 36 -133
41 -138 3 -4 61 8 128 26 153 41 153 41 175 46 17 4 197 53 297 80 89 25 260
70 265 71 3 0 11 4 18 8 6 5 12 6 12 3 0 -3 11 -1 26 4 14 6 37 12 52 15 15 3
52 12 82 20 30 9 60 17 65 18 6 2 16 6 23 10 6 5 12 6 12 3 0 -2 15 0 33 5 17
6 41 12 52 15 25 6 30 8 85 23 25 7 52 14 60 16 8 2 35 9 60 16 25 7 50 14 55
15 24 6 171 45 185 49 25 7 94 25 115 30 11 3 103 28 205 56 176 48 212 57
235 62 6 2 16 6 23 10 6 5 12 6 12 3 0 -3 18 1 40 9 22 8 40 12 40 10 0 -2 19
2 41 11 23 8 51 16 63 19 32 6 58 13 94 24 17 5 32 8 32 5 0 -3 8 0 19 5 10 6
31 13 47 16 16 2 75 18 132 34 57 16 102 27 100 25 -2 -2 -477 -479 -1057
-1059 l-1055 -1055 1065 -1065 c585 -585 1075 -1070 1089 -1077 14 -7 68 -38
120 -69 52 -31 115 -67 140 -81 25 -14 90 -51 145 -83 55 -32 115 -66 133 -77
98 -55 206 -117 222 -128 8 -5 47 -27 85 -49 39 -22 93 -54 120 -69 28 -16 66
-38 85 -49 104 -60 146 -84 160 -93 21 -13 207 -119 233 -134 12 -6 33 -18 47
-27 41 -26 212 -124 260 -150 25 -13 59 -34 76 -46 17 -13 34 -23 38 -23 5 0
372 -209 456 -260 38 -23 407 -237 431 -250 24 -13 285 -164 329 -190 115 -69
330 -190 338 -190 6 0 12 -4 14 -8 2 -6 279 -168 466 -274 18 -10 93 -53 165
-95 73 -42 145 -83 162 -92 16 -9 32 -18 35 -21 3 -3 46 -29 95 -57 50 -28
194 -110 320 -184 127 -73 266 -153 310 -178 44 -25 82 -48 85 -51 3 -3 23
-14 45 -26 39 -20 346 -195 375 -214 15 -9 116 -67 175 -100 17 -9 68 -40 115
-67 47 -28 157 -92 245 -142 88 -51 167 -96 175 -101 16 -10 105 -61 155 -90
17 -10 57 -33 90 -52 33 -19 89 -52 125 -72 36 -20 72 -41 80 -46 31 -19 127
-73 165 -94 22 -11 44 -25 50 -29 24 -19 453 -264 480 -274 17 -6 48 -16 70
-22 141 -39 224 -61 254 -66 19 -3 38 -8 43 -11 4 -3 16 -7 25 -9 10 -2 45
-12 78 -21 33 -9 69 -18 79 -20 10 -2 33 -8 50 -13 38 -13 403 -110 431 -116
11 -2 20 -4 20 -5 0 -2 15 -6 55 -14 14 -3 48 -13 75 -21 51 -15 236 -66 335
-91 30 -8 60 -16 65 -18 6 -1 24 -6 40 -10 17 -5 89 -24 160 -43 72 -19 137
-36 145 -39 8 -2 33 -8 55 -14 22 -6 47 -12 55 -14 8 -3 42 -12 75 -21 33 -9
67 -18 75 -20 8 -2 30 -8 48 -14 17 -5 32 -8 32 -6 0 3 12 0 28 -6 15 -6 34
-12 42 -14 8 -2 42 -11 75 -20 33 -9 67 -18 75 -20 8 -2 40 -10 71 -19 31 -9
65 -19 75 -21 11 -2 62 -16 114 -31 149 -41 158 -41 167 1 1 6 9 37 18 70 9
33 18 68 21 78 15 61 19 76 27 97 4 12 39 145 51 195 2 6 8 30 15 55 7 25 15
52 16 60 2 8 11 42 20 75 17 61 22 80 29 115 3 11 7 24 10 28 3 5 7 19 10 33
2 13 14 59 26 101 11 43 23 85 25 95 5 20 23 90 30 113 24 83 36 130 40 154 3
16 8 32 10 36 5 7 51 180 69 257 2 10 22 83 44 163 22 80 43 159 47 175 5 17
9 35 11 40 2 6 5 19 8 30 3 11 9 35 15 53 5 17 7 32 4 32 -3 0 0 7 7 15 7 8
10 15 6 15 -3 0 -1 11 4 25 5 14 12 36 14 48 3 12 19 74 36 137 18 63 33 120
34 125 2 6 8 30 15 55 7 25 14 52 16 60 2 8 13 50 25 92 11 43 23 85 25 95 3
10 12 43 21 73 15 51 17 392 18 4310 1 2341 -2 4268 -7 4285 -9 34 -6 24 -47
175 -33 126 -108 406 -115 430 -3 8 -12 42 -20 75 -18 68 -18 68 -40 150 -9
33 -18 67 -20 75 -2 8 -10 42 -20 75 -9 33 -25 92 -35 130 -10 39 -26 97 -35
130 -10 33 -18 67 -20 75 -2 8 -9 35 -16 60 -14 50 -16 56 -23 85 -21 77 -27
102 -30 115 -4 16 -34 125 -41 150 -2 8 -9 33 -15 55 -6 22 -13 48 -15 58 -3
9 -7 25 -9 35 -2 9 -11 43 -21 74 -9 31 -18 69 -21 84 -3 15 -7 31 -10 36 -3
4 -7 16 -9 25 -2 10 -13 54 -24 98 -12 44 -23 87 -25 95 -2 8 -11 40 -20 71
-9 31 -18 65 -21 75 -4 18 -12 49 -51 194 -8 30 -17 62 -19 70 -2 12 -19 71
-30 110 -1 3 -5 22 -9 43 -5 20 -9 37 -11 37 -1 0 -19 -7 -39 -15 -20 -8 -36
-13 -36 -10 0 2 -11 0 -25 -5 -14 -5 -36 -12 -48 -14 -12 -2 -42 -10 -67 -17
-25 -7 -49 -13 -55 -15 -12 -2 -273 -73 -295 -79 -17 -5 -130 -35 -145 -38 -5
-2 -16 -6 -22 -10 -7 -5 -13 -6 -13 -3 0 2 -15 0 -32 -5 -18 -6 -41 -12 -50
-15 -10 -2 -26 -6 -35 -9 -37 -9 -99 -26 -113 -29 -8 -2 -42 -11 -75 -21 -154
-42 -184 -50 -226 -60 -12 -2 -36 -9 -54 -15 -18 -6 -41 -12 -51 -14 -10 -2
-44 -11 -75 -20 -31 -9 -65 -18 -77 -21 -11 -2 -71 -18 -133 -35 -63 -18 -122
-34 -131 -36 -10 -2 -26 -6 -35 -9 -10 -2 -36 -9 -58 -15 -96 -25 -86 -23
-145 -39 -25 -7 -52 -14 -60 -16 -8 -2 -67 -18 -130 -35 -110 -30 -128 -35
-168 -44 -9 -2 -37 -10 -62 -17 -25 -7 -49 -14 -55 -15 -5 -2 -23 -6 -39 -9
-16 -3 -33 -8 -38 -11 -4 -3 -17 -7 -28 -10 -35 -7 -54 -12 -115 -29 -33 -9
-70 -18 -82 -21 -12 -2 -35 -9 -50 -15 -15 -6 -25 -8 -23 -5 3 3 479 481 1059
1061 l1054 1055 -1055 1056 c-764 764 -1049 1055 -1030 1051 15 -3 63 -15 107
-27 44 -12 85 -23 90 -25 29 -6 79 -20 156 -41 47 -14 95 -26 105 -28 10 -2
46 -11 79 -20 33 -9 67 -19 75 -21 8 -2 123 -33 255 -68 132 -35 254 -68 270
-72 17 -5 32 -9 35 -10 37 -11 99 -28 114 -31 10 -2 44 -11 75 -20 31 -9 64
-18 74 -20 35 -8 53 -13 110 -28 31 -9 83 -23 115 -32 31 -8 64 -17 72 -19 8
-3 42 -12 75 -21 33 -9 67 -18 75 -20 16 -4 86 -22 110 -29 87 -24 138 -37
150 -40 8 -2 41 -11 74 -20 32 -9 64 -18 70 -19 20 -5 69 -18 161 -43 50 -14
98 -26 107 -28 9 -2 51 -13 94 -25 42 -12 88 -24 102 -26 14 -3 33 -9 44 -15
10 -5 18 -7 18 -4 0 3 9 1 19 -5 14 -7 22 -7 26 1 6 9 34 113 50 183 2 10 9
33 15 51 6 18 13 42 15 54 7 29 11 47 30 116 21 77 19 70 55 204 16 62 39 147
51 188 11 41 22 82 24 91 3 9 9 35 15 57 6 22 12 47 14 55 3 8 12 42 21 75 9
33 18 65 19 70 2 6 6 24 11 40 4 17 21 77 36 135 16 58 31 114 33 125 3 16 19
74 31 115 1 3 5 19 10 35 4 17 23 87 42 157 18 70 36 136 38 147 2 12 6 25 9
29 3 5 7 19 10 33 3 13 7 33 10 44 8 30 26 98 31 115 2 8 13 49 24 90 11 41
28 102 37 135 9 33 18 68 20 78 9 40 15 63 44 167 12 41 23 82 25 90 2 8 8 30
14 48 5 18 10 33 10 35 -1 8 14 67 24 91 10 28 10 28 24 -25 8 -30 16 -61 18
-69 1 -8 9 -35 16 -60 7 -25 13 -50 14 -55 2 -6 13 -46 25 -90 12 -44 23 -87
25 -95 2 -8 15 -58 30 -110 15 -52 29 -104 31 -115 2 -11 15 -60 29 -110 14
-49 28 -101 31 -115 3 -14 13 -54 23 -90 11 -36 22 -78 27 -95 4 -16 8 -34 10
-40 2 -5 8 -28 14 -50 6 -22 13 -48 15 -57 3 -10 7 -26 9 -35 3 -10 12 -45 21
-78 9 -33 18 -67 21 -75 2 -8 8 -33 14 -55 6 -22 12 -47 14 -55 3 -8 12 -42
21 -75 9 -33 18 -69 20 -79 3 -10 9 -33 15 -51 6 -18 12 -41 15 -51 2 -10 29
-113 60 -229 31 -115 58 -217 59 -225 2 -8 10 -35 17 -60 15 -55 17 -60 23
-85 3 -11 9 -35 15 -52 5 -18 7 -33 4 -33 -3 0 0 -7 7 -15 7 -8 10 -15 7 -15
-3 0 2 -21 10 -47 8 -27 16 -55 18 -63 2 -8 13 -51 24 -95 12 -44 23 -87 25
-95 3 -8 9 -28 16 -45 6 -16 11 -31 11 -32 -9 -33 22 -43 74 -23 25 10 217 62
270 73 6 2 16 6 23 10 6 5 12 6 12 3 0 -3 11 -1 26 4 14 6 37 12 52 15 15 3
52 12 82 21 64 18 119 33 140 38 8 2 76 20 150 40 145 40 161 44 188 50 23 6
158 42 206 56 21 7 46 13 55 15 10 2 77 20 151 40 74 20 141 38 149 40 42 9
150 38 188 51 23 7 53 16 68 19 14 3 37 7 52 11 15 3 30 7 35 10 4 3 16 7 25
9 10 2 79 20 153 40 74 20 146 39 160 42 14 2 32 7 40 10 8 3 20 7 25 8 40 10
194 51 320 85 83 22 161 43 175 46 47 9 95 29 152 61 31 18 59 33 63 33 4 0
19 8 33 19 15 10 43 27 62 38 19 11 80 46 135 78 55 32 114 66 130 75 259 148
391 226 393 232 2 4 8 8 14 8 8 0 138 73 503 285 99 57 191 111 250 145 17 9
134 77 260 150 127 73 246 142 265 152 19 11 118 69 220 128 102 59 201 117
220 127 19 11 123 71 230 133 107 62 215 124 240 138 25 14 77 44 115 67 39
23 77 45 85 48 8 4 29 16 45 26 31 19 454 264 535 309 25 14 89 52 143 84 55
32 101 58 103 58 2 0 44 25 95 55 50 30 95 55 100 55 5 0 9 5 9 10 0 6 5 10
10 10 6 0 156 84 333 186 177 103 340 197 362 210 22 12 123 70 225 129 102
59 255 148 340 197 85 49 162 93 170 99 14 8 329 190 425 244 183 104 512 296
522 304 7 6 18 11 24 11 7 0 20 6 28 14 18 15 278 166 286 166 3 0 18 8 33 19
15 10 90 55 167 100 l140 81 1059 1060 1060 1060 -1064 1063 -1063 1064 -131
75 c-72 42 -243 141 -381 220 -137 79 -270 155 -295 169 -25 13 -47 26 -50 29
-3 3 -48 30 -100 59 -52 30 -120 69 -150 86 -139 81 -248 145 -285 165 -22 13
-60 34 -85 48 -25 14 -90 52 -145 85 -55 33 -120 71 -145 85 -47 26 -142 80
-245 139 -33 19 -64 38 -70 42 -5 5 -37 23 -70 41 -33 18 -76 43 -96 54 -20
12 -103 60 -185 107 -82 47 -208 120 -281 162 -72 42 -147 85 -165 96 -38 21
-350 202 -545 315 -73 42 -135 76 -138 76 -3 0 -11 5 -18 11 -10 8 -299 177
-469 273 -37 21 -180 103 -248 143 -295 171 -421 243 -429 243 -5 0 -11 4 -13
8 -1 5 -28 22 -58 39 -30 17 -82 46 -115 65 -33 19 -159 92 -280 162 -121 69
-227 130 -235 135 -16 10 -202 118 -285 164 -27 16 -75 44 -105 62 -152 91
-390 225 -400 225 -5 0 -10 5 -10 10 0 6 -4 10 -9 10 -5 0 -42 20 -82 44 -41
24 -93 54 -116 67 -84 48 -241 138 -363 209 -69 41 -142 83 -162 94 -20 12
-120 69 -221 128 -159 92 -208 115 -287 134 -8 2 -42 11 -75 20 -33 9 -67 18
-75 20 -26 6 -80 21 -205 54 -66 18 -124 33 -130 35 -5 1 -17 5 -25 8 -14 5
-60 16 -70 16 -3 0 -27 7 -55 15 -49 15 -411 113 -450 122 -24 6 -27 7 -85 23
-25 7 -53 15 -62 17 -44 10 -59 14 -148 38 -52 14 -108 30 -125 35 -16 6 -45
13 -64 16 -19 3 -38 8 -43 11 -4 3 -17 7 -28 10 -24 5 -36 8 -115 30 -33 9
-67 18 -75 20 -8 1 -58 15 -110 29 -52 15 -103 28 -112 31 -10 2 -26 6 -35 9
-10 2 -36 9 -58 15 -96 25 -86 23 -145 39 -25 7 -52 15 -60 17 -26 6 -134 34
-150 39 -48 14 -169 46 -194 50 -16 3 -37 10 -47 15 -28 15 -69 12 -69 -5 0
-21 -1 -27 -12 -55 -5 -14 -11 -32 -13 -40 -2 -8 -13 -51 -25 -95 -12 -44 -24
-88 -26 -97 -8 -34 -13 -54 -34 -123 -11 -38 -22 -79 -25 -90 -2 -11 -6 -31
-9 -44 -3 -13 -10 -38 -15 -55 -8 -26 -58 -208 -65 -241 -2 -5 -8 -30 -15 -55
-7 -25 -15 -52 -17 -60 -4 -19 -17 -66 -44 -165 -19 -69 -42 -155 -54 -205 -2
-8 -11 -40 -20 -71 -9 -31 -18 -65 -20 -75 -2 -11 -11 -44 -20 -75 -9 -31 -19
-65 -21 -75 -2 -11 -23 -89 -45 -174 -23 -85 -43 -162 -45 -170 -2 -8 -34
-125 -71 -260 -36 -135 -68 -255 -70 -267 -2 -12 -9 -35 -15 -50 -6 -16 -10
-29 -10 -30 1 -2 1 -4 0 -5 -1 -4 -8 -31 -12 -48 -2 -8 -9 -35 -16 -60 -7 -25
-15 -56 -18 -69 -2 -13 -9 -34 -15 -45 -6 -12 -11 -22 -10 -23 1 -2 2 -13 2
-25 0 -53 -20 2 -65 182 -5 21 -44 168 -56 210 -5 19 -12 43 -14 53 -3 9 -7
25 -10 35 -12 46 -26 99 -30 115 -2 9 -6 21 -10 26 -3 5 -7 22 -9 38 -3 15
-16 71 -31 123 -15 52 -29 102 -30 110 -3 12 -58 218 -69 255 -2 6 -6 24 -11
40 -4 17 -21 80 -37 140 -33 123 -32 117 -53 200 -9 33 -21 76 -26 95 -5 19
-12 43 -14 54 -2 10 -12 44 -21 75 -9 31 -17 63 -19 71 -2 8 -11 42 -20 75 -9
33 -18 68 -21 78 -2 9 -6 25 -8 35 -3 9 -12 44 -21 77 -9 33 -24 92 -34 130
-11 39 -26 95 -35 126 -9 31 -19 65 -21 75 -5 19 -32 125 -40 154 -2 8 -11 40
-19 70 -39 143 -47 176 -51 193 -6 26 -15 38 -26 32 -8 -6 -103 -32 -143 -40
-10 -3 -44 -12 -75 -21 -31 -9 -64 -18 -74 -19 -9 -2 -21 -6 -25 -9 -5 -3 -19
-7 -33 -10 -46 -9 -64 -14 -179 -46 -63 -17 -122 -33 -130 -35 -8 -1 -42 -10
-75 -19 -76 -21 -91 -25 -113 -30 -9 -2 -37 -10 -62 -17 -25 -7 -49 -13 -55
-15 -5 -1 -53 -14 -105 -28 -52 -15 -106 -29 -120 -32 -14 -2 -34 -8 -45 -11
-11 -4 -22 -8 -25 -8 -3 -1 -18 -5 -35 -9 -16 -5 -59 -16 -95 -27 -36 -10 -76
-20 -90 -23 -14 -3 -74 -19 -135 -36 -107 -30 -124 -35 -165 -45 -11 -3 -29
-7 -40 -10 -11 -3 -29 -7 -40 -9 -11 -3 -24 -7 -28 -10 -5 -3 -22 -8 -38 -11
-23 -4 -190 -48 -304 -80 -13 -4 -71 -19 -110 -29 -8 -3 -42 -12 -75 -21 -70
-19 -91 -24 -124 -31 -14 -3 -28 -7 -33 -10 -4 -3 -16 -7 -25 -9 -18 -3 -110
-27 -239 -63 -40 -10 -85 -29 -102 -41 -17 -11 -33 -21 -37 -21 -3 0 -31 -16
-61 -35 -30 -19 -56 -35 -58 -35 -2 0 -55 -30 -117 -66 -199 -116 -556 -322
-669 -386 -19 -11 -76 -44 -127 -74 -51 -30 -97 -54 -102 -54 -6 0 -11 -3 -11
-7 0 -5 -10 -13 -23 -19 -12 -6 -141 -80 -287 -164 -146 -84 -278 -161 -295
-170 -32 -18 -136 -79 -385 -223 -85 -49 -169 -98 -187 -108 -17 -10 -134 -77
-260 -150 -125 -72 -241 -139 -258 -149 -53 -30 -209 -121 -225 -130 -37 -22
-226 -130 -305 -175 -165 -94 -632 -366 -642 -374 -7 -6 -19 -11 -28 -11 -8 0
-15 -4 -15 -10 0 -5 -7 -10 -15 -10 -8 0 -15 -4 -15 -10 0 -5 -5 -10 -11 -10
-6 0 -52 -24 -102 -54 -51 -29 -108 -63 -127 -73 -19 -11 -63 -37 -97 -57 -34
-20 -66 -36 -72 -36 -6 0 -11 -4 -11 -10 0 -5 -4 -10 -9 -10 -4 0 -60 -30
-122 -67 -63 -37 -129 -73 -146 -82 -18 -8 -33 -19 -33 -23 0 -4 -4 -8 -9 -8
-5 0 -47 -22 -94 -50 -47 -27 -90 -50 -96 -50 -6 0 -11 -4 -11 -10 0 -5 -7
-10 -15 -10 -8 0 -15 -4 -15 -10 0 -5 -5 -10 -11 -10 -6 0 -38 -16 -72 -36
-34 -20 -77 -45 -95 -56 -18 -10 -93 -53 -165 -95 -73 -42 -148 -85 -167 -96
-161 -91 -201 -114 -247 -144 -28 -18 -53 -33 -56 -33 -2 0 -55 -29 -116 -65
-62 -36 -115 -65 -117 -65 -3 0 -18 -8 -32 -19 -15 -10 -44 -28 -64 -40 -97
-54 -166 -94 -523 -301 -16 -10 -68 -39 -115 -66 -47 -26 -87 -51 -90 -54 -3
-4 -15 -10 -27 -14 -13 -4 -29 -13 -36 -19 -7 -7 -30 -21 -52 -32 -22 -10 -58
-31 -80 -45 -22 -15 -69 -43 -105 -63 -55 -31 -230 -202 -1124 -1097 l-1060
-1060 1055 -1055 c580 -580 1056 -1057 1058 -1060 2 -2 -12 0 -30 6 -40 12
-177 49 -199 54 -8 2 -76 20 -150 40 -74 20 -144 39 -154 41 -10 2 -33 8 -51
14 -18 6 -42 13 -54 15 -25 6 -36 9 -116 31 -33 9 -69 18 -79 20 -10 2 -33 8
-51 14 -18 6 -42 13 -55 15 -13 2 -62 16 -111 30 -48 14 -98 27 -111 29 -12 3
-23 5 -23 6 0 1 -8 3 -17 6 -25 6 -37 9 -88 23 -43 13 -54 15 -101 26 -12 2
-36 9 -54 15 -18 6 -41 13 -51 15 -10 2 -71 18 -134 35 -63 17 -124 33 -135
36 -28 7 -34 9 -85 23 -25 7 -52 15 -60 16 -8 2 -51 13 -95 25 -44 12 -88 23
-98 25 -9 2 -21 6 -25 9 -5 3 -19 7 -33 10 -13 2 -51 12 -84 21 -66 18 -61 17
-125 33 -25 7 -58 16 -75 22 -16 5 -41 11 -55 14 -14 3 -68 17 -120 31 -97 27
-118 32 -157 41 -12 2 -34 9 -48 14 -14 5 -25 7 -25 4 0 -4 -6 -1 -14 5 -20
17 -21 15 -62 -139 -6 -24 -24 -94 -29 -112 -3 -10 -7 -26 -10 -35 -2 -10 -14
-54 -26 -98 -11 -44 -23 -87 -24 -95 -2 -8 -16 -58 -30 -110 -15 -52 -28 -102
-30 -110 -2 -8 -18 -67 -35 -130 -31 -112 -35 -127 -45 -171 -2 -12 -9 -36
-15 -54 -6 -18 -12 -41 -15 -51 -2 -10 -16 -62 -30 -114 -14 -52 -27 -101 -29
-110 -2 -8 -5 -22 -8 -30 -8 -22 -42 -155 -40 -157 1 -2 -5 -21 -13 -44 -9
-23 -18 -54 -21 -68 -3 -14 -6 -30 -8 -36 -1 -5 -8 -30 -15 -55 -7 -25 -15
-53 -17 -62 -2 -10 -6 -26 -8 -37 -2 -10 -9 -36 -16 -57 -6 -22 -27 -97 -46
-169 -19 -71 -37 -137 -39 -145 -2 -8 -15 -55 -28 -105 -63 -234 -89 -332 -93
-349 -2 -10 -8 -33 -14 -51 -6 -18 -13 -42 -15 -54 -3 -11 -7 -31 -10 -42 -8
-36 -27 -91 -30 -87 -2 2 -6 15 -8 28 -6 30 -38 153 -61 231 -9 31 -18 65 -20
75 -3 11 -21 80 -41 154 -40 147 -40 144 -55 210 -6 25 -15 56 -20 70 -6 14
-12 35 -15 48 -8 37 -12 53 -45 177 -18 66 -34 123 -36 126 -2 3 -6 19 -9 35
-3 16 -12 54 -20 84 -23 81 -23 80 -41 145 -9 33 -17 67 -19 75 -2 8 -18 67
-35 130 -17 63 -33 122 -35 130 -2 12 -19 75 -40 150 -2 8 -18 67 -34 130 -17
63 -40 149 -52 190 -11 41 -22 82 -24 90 -2 8 -17 67 -34 130 -29 112 -50 187
-92 340 -12 41 -23 86 -26 100 -2 13 -6 27 -9 30 -3 2 -44 -6 -92 -19 -48 -12
-94 -24 -102 -26 -8 -2 -35 -9 -60 -16 -25 -7 -49 -14 -55 -15 -5 -2 -23 -6
-39 -9 -16 -3 -33 -8 -38 -11 -4 -3 -16 -7 -25 -9 -18 -3 -155 -39 -268 -70
-33 -9 -67 -18 -75 -20 -8 -1 -35 -9 -60 -16 -25 -7 -49 -13 -55 -15 -5 -1
-95 -25 -200 -54 -104 -28 -197 -53 -205 -55 -8 -2 -51 -13 -95 -25 -44 -12
-88 -23 -98 -25 -9 -2 -21 -6 -25 -9 -5 -3 -19 -7 -33 -10 -48 -10 -65 -14
-120 -30 -31 -9 -65 -18 -75 -21 -11 -2 -46 -11 -79 -20 -33 -9 -67 -18 -75
-21 -8 -2 -33 -8 -55 -14 -22 -6 -47 -12 -55 -14 -8 -2 -42 -11 -75 -20 -33
-9 -67 -18 -75 -20 -26 -7 -163 -45 -204 -56 -21 -7 -47 -14 -57 -16 -11 -2
-27 -6 -36 -9 -10 -2 -36 -9 -58 -15 -22 -6 -47 -13 -55 -15 -31 -9 -96 -26
-120 -31 -14 -3 -50 -12 -80 -21 -30 -9 -56 -15 -57 -15 -2 1 -21 -5 -43 -13
-22 -8 -40 -11 -40 -7 0 4 473 479 1050 1056 578 577 1050 1052 1050 1056 0 4
-478 484 -1062 1068 l-1063 1062 -105 61 c-58 33 -112 64 -120 69 -22 13 -346
201 -399 231 -87 49 -116 66 -178 103 -34 20 -66 36 -72 36 -6 0 -11 3 -11 8
0 4 -21 18 -47 31 -27 14 -59 32 -73 42 -14 9 -45 27 -70 41 -78 43 -453 260
-492 285 -21 12 -39 23 -42 23 -2 0 -64 36 -139 79 -144 84 -201 117 -257 147
-19 11 -37 21 -40 24 -11 11 -241 140 -250 140 -6 0 -10 5 -10 10 0 6 -5 10
-11 10 -6 0 -30 14 -54 30 -24 17 -47 30 -51 30 -3 0 -40 20 -81 45 -40 25
-76 45 -79 45 -2 0 -21 11 -42 24 -20 13 -98 58 -172 100 -74 43 -142 81 -150
87 -8 5 -49 28 -90 51 -41 24 -82 48 -92 53 -9 6 -47 28 -85 49 -37 22 -174
101 -303 176 -129 75 -255 148 -280 162 -25 14 -130 75 -235 135 -162 94 -422
244 -545 315 -19 11 -65 38 -102 59 -36 22 -71 39 -76 39 -6 0 -12 4 -14 8 -1
5 -28 22 -58 39 -30 17 -122 70 -205 118 -82 48 -172 99 -200 114 -27 14 -52
28 -55 31 -4 5 -55 35 -204 120 -34 19 -143 82 -193 111 -18 11 -48 27 -65 38
-18 10 -163 94 -323 186 -159 93 -307 178 -327 189 -20 12 -78 45 -130 75 -51
30 -108 62 -125 73 -18 10 -50 28 -70 40 -21 12 -54 31 -74 42 -20 12 -106 61
-190 110 -85 49 -174 100 -198 114 -25 14 -67 38 -93 53 -27 16 -53 29 -58 29
-4 0 -10 4 -12 9 -1 6 -17 12 -35 16 -18 3 -45 10 -60 16 -15 6 -29 10 -30 10
-2 -1 -4 -1 -5 0 -2 0 -10 2 -18 4 -8 2 -40 10 -70 19 -113 30 -215 58 -230
62 -16 4 -85 22 -112 29 -10 3 -26 7 -35 10 -10 2 -36 9 -58 15 -22 6 -48 13
-57 15 -10 3 -26 7 -35 10 -10 2 -36 9 -58 15 -22 6 -48 13 -57 15 -10 3 -26
7 -35 10 -10 2 -67 18 -128 35 -60 16 -119 32 -130 34 -17 3 -47 11 -120 32
-24 7 -171 46 -185 49 -8 2 -42 11 -75 20 -33 10 -76 21 -95 26 -19 5 -43 12
-52 14 -10 3 -27 7 -38 10 -28 7 -35 9 -240 65 -121 33 -140 38 -179 46 -13 3
-32 9 -43 15 -10 5 -18 7 -18 5 0 -3 -11 -1 -25 4 -25 9 -35 12 -99 25 -16 3
-33 8 -38 11 -7 4 -141 41 -178 49 -8 2 -55 14 -105 28 -78 22 -125 33 -152
39 -5 1 -33 9 -65 18 l-56 18 -17 -60 c-9 -33 -18 -69 -20 -80 -3 -12 -15 -60
-29 -107 -22 -81 -36 -133 -41 -156 -2 -5 -12 -45 -24 -88 -13 -43 -24 -86
-26 -95 -2 -9 -22 -84 -45 -166 -22 -82 -42 -157 -44 -165 -2 -9 -5 -23 -8
-31 -5 -14 -45 -165 -54 -200 -1 -8 -15 -58 -29 -110 -15 -52 -28 -103 -31
-112 -13 -56 -20 -81 -59 -223 -10 -33 -19 -69 -22 -80 -5 -23 -5 -25 -22 -85
-7 -25 -15 -53 -17 -64 -2 -10 -11 -44 -20 -75 -9 -31 -18 -64 -20 -73 -2 -10
-7 -28 -10 -40 -3 -13 -7 -30 -9 -38 -2 -8 -4 -15 -5 -15 -1 0 -3 -7 -5 -15
-6 -22 -47 -175 -170 -635 -15 -55 -28 -104 -30 -110 -1 -5 -6 -23 -10 -40
l-8 -30 -9 30 c-18 65 -49 181 -53 195 -1 8 -9 35 -16 60 -7 25 -14 51 -16 58
-2 6 -4 18 -6 25 -2 6 -9 32 -16 57 -7 25 -14 52 -16 60 -2 8 -20 76 -40 150
-20 74 -38 144 -41 155 -2 11 -11 45 -20 75 -8 30 -19 71 -24 90 -5 19 -12 44
-15 55 -2 11 -4 22 -4 25 0 3 -5 19 -11 35 -7 17 -13 38 -15 48 -2 10 -14 52
-25 95 -12 42 -24 85 -26 95 -10 43 -13 56 -29 112 -9 33 -18 67 -20 75 -2 8
-4 15 -5 15 -1 0 -3 7 -5 15 -2 8 -6 25 -9 38 -3 12 -8 31 -10 41 -3 11 -14
55 -26 98 -23 79 -77 284 -85 316 -2 9 -6 21 -9 25 -3 5 -8 24 -11 43 -3 19
-14 63 -24 99 -17 59 -33 117 -35 130 -1 3 -5 11 -9 18 -5 6 -6 12 -3 12 2 0
0 15 -5 33 -6 17 -12 39 -14 47 -1 8 -15 58 -29 110 -14 52 -41 153 -60 223
-19 71 -36 130 -38 131 -2 2 -64 -14 -138 -35z"/>
</g>
</svg>
